<svg width="18" height="14" viewBox="0 0 18 14" fill="none" xmlns="http://www.w3.org/2000/svg">
<path d="M8.99995 10.7501C7.02469 10.7501 5.42573 9.2212 5.27859 7.2837L2.54682 5.1725C2.18771 5.62303 1.85724 6.09933 1.59057 6.62016C1.531 6.738 1.49996 6.8682 1.49996 7.00024C1.49996 7.13228 1.531 7.26248 1.59057 7.38032C3.00281 10.1358 5.79865 12.0001 8.99995 12.0001C9.70073 12.0001 10.3768 11.8959 11.0283 11.7277L9.67703 10.6821C9.45386 10.7253 9.22724 10.748 8.99995 10.7501ZM17.1723 12.2631L14.2934 10.0381C15.168 9.30113 15.8872 8.39758 16.4093 7.38006C16.4689 7.26222 16.4999 7.13202 16.4999 6.99998C16.4999 6.86794 16.4689 6.73774 16.4093 6.6199C14.9971 3.86443 12.2013 2.00011 8.99995 2.00011C7.65919 2.00173 6.34021 2.33927 5.16349 2.98188L1.85047 0.421203C1.80727 0.387585 1.75786 0.36281 1.70508 0.348293C1.6523 0.333776 1.59718 0.329801 1.54286 0.336597C1.48854 0.343393 1.43609 0.360826 1.38852 0.387899C1.34094 0.414972 1.29916 0.451155 1.26557 0.49438L0.754376 1.15245C0.686563 1.23969 0.656176 1.35029 0.669899 1.45992C0.683622 1.56956 0.740331 1.66926 0.827553 1.73709L16.1494 13.579C16.1926 13.6126 16.242 13.6374 16.2948 13.6519C16.3476 13.6664 16.4027 13.6704 16.457 13.6636C16.5114 13.6568 16.5638 13.6394 16.6114 13.6123C16.659 13.5852 16.7007 13.5491 16.7343 13.5058L17.2458 12.8478C17.3136 12.7605 17.3439 12.6499 17.3301 12.5402C17.3164 12.4306 17.2596 12.3309 17.1723 12.2631ZM12.388 8.56521L11.3645 7.77407C11.4507 7.52497 11.4964 7.26367 11.4999 7.00011C11.505 6.61424 11.4195 6.23256 11.2504 5.88572C11.0812 5.53888 10.833 5.23656 10.5258 5.00303C10.2185 4.7695 9.86084 4.61128 9.48137 4.54108C9.10191 4.47088 8.71127 4.49065 8.34083 4.59881C8.49787 4.81159 8.58281 5.06898 8.58328 5.33344C8.5794 5.42145 8.56595 5.50876 8.54318 5.59386L6.62625 4.11235C7.29213 3.55589 8.13217 3.25075 8.99995 3.25011C9.49248 3.24984 9.98024 3.34664 10.4353 3.535C10.8904 3.72336 11.3039 3.99957 11.6522 4.34785C12.0005 4.69612 12.2767 5.10963 12.4651 5.56472C12.6534 6.01982 12.7502 6.50758 12.7499 7.00011C12.7499 7.56339 12.6122 8.08839 12.388 8.56547V8.56521Z" fill="#9FA2B4"/>
</svg>
